<?xml version="1.0" standalone="no"?>
<!DOCTYPE svg PUBLIC "-//W3C//DTD SVG 20010904//EN"
 "http://www.w3.org/TR/2001/REC-SVG-20010904/DTD/svg10.dtd">
<svg version="1.0" xmlns="http://www.w3.org/2000/svg"
 width="1024.000000pt" height="1024.000000pt" viewBox="0 0 1024.000000 1024.000000"
 preserveAspectRatio="xMidYMid meet">

<g transform="translate(0.000000,1024.000000) scale(0.100000,-0.100000)"
fill="#000000" stroke="none">
<path d="M5280 8619 c-200 -21 -461 -106 -638 -208 -171 -99 -270 -176 -553
-429 -223 -200 -367 -269 -719 -346 -286 -63 -382 -87 -498 -128 -512 -176
-862 -547 -992 -1051 -43 -169 -54 -256 -54 -442 0 -295 41 -445 209 -771 188
-363 204 -498 101 -881 -50 -183 -66 -281 -73 -424 -14 -295 57 -546 218 -773
168 -235 397 -400 676 -485 172 -53 251 -62 603 -71 329 -9 390 -15 515 -56
150 -50 317 -150 515 -309 316 -254 500 -347 809 -412 108 -22 153 -26 316
-27 197 -1 303 10 454 46 432 102 822 352 1113 713 159 199 258 402 317 655
24 103 51 347 51 465 0 364 89 603 320 862 52 58 122 138 155 177 157 186 262
399 312 636 25 119 25 392 0 509 -95 443 -340 736 -832 991 -427 222 -554 362
-705 780 -63 172 -97 244 -178 367 -190 288 -534 514 -897 587 -167 35 -363
43 -545 25z m487 -204 c402 -82 709 -306 878 -644 20 -40 59 -137 87 -215 91
-257 177 -405 318 -547 101 -101 217 -180 465 -315 99 -53 207 -115 240 -137
259 -173 410 -380 488 -670 19 -71 22 -106 21 -272 0 -172 -3 -199 -26 -286
-59 -217 -143 -358 -353 -595 -159 -179 -234 -281 -291 -399 -82 -170 -116
-342 -129 -650 -18 -436 -95 -685 -295 -958 -265 -360 -656 -612 -1100 -709
-92 -20 -134 -23 -330 -23 -251 0 -313 9 -494 72 -189 66 -316 141 -541 322
-277 222 -463 322 -702 377 -48 11 -161 18 -388 24 -389 10 -508 28 -694 101
-311 124 -517 338 -622 647 -40 119 -53 221 -46 386 5 145 13 193 71 426 47
188 60 269 59 385 -1 193 -35 304 -181 587 -149 291 -195 456 -195 698 0 463
196 866 543 1119 95 69 283 165 405 206 88 29 243 68 465 115 395 83 581 179
875 450 137 126 242 212 329 270 352 236 742 316 1143 235z"/>
<path d="M4894 7150 c-570 -55 -1079 -377 -1375 -867 -224 -371 -301 -850
-209 -1298 106 -512 443 -954 904 -1185 513 -258 1113 -262 1611 -13 424 213
732 571 884 1028 292 878 -109 1826 -924 2183 -285 125 -606 179 -891 152z
m288 -180 c418 -35 792 -218 1052 -516 337 -385 468 -907 355 -1416 -103 -470
-422 -878 -852 -1095 -367 -184 -840 -209 -1248 -67 -375 130 -697 411 -873
763 -187 372 -217 838 -80 1251 131 395 427 732 810 923 265 132 531 182 836
157z"/>
<path d="M4190 6237 c-71 -17 -118 -40 -169 -84 -71 -61 -88 -114 -48 -151 32
-30 64 -28 123 9 81 52 124 63 228 56 80 -5 96 -4 124 13 25 15 32 27 32 51 0
16 -5 39 -11 51 -27 50 -174 79 -279 55z"/>
<path d="M5800 6004 c-90 -24 -161 -65 -231 -134 -106 -104 -169 -216 -169
-302 0 -30 7 -46 29 -69 16 -16 38 -29 49 -29 10 0 63 16 118 35 151 53 263
47 348 -19 64 -48 136 -26 136 43 0 70 -73 139 -177 166 -79 21 -162 17 -258
-11 -37 -11 66 83 125 115 32 17 90 38 131 46 55 11 80 22 97 41 40 46 25 93
-38 118 -49 19 -87 19 -160 0z"/>
<path d="M4246 5775 c-47 -16 -99 -65 -134 -124 -38 -65 -43 -186 -12 -259 50
-116 166 -166 294 -128 108 33 167 113 174 237 4 74 2 84 -27 144 -35 71 -73
106 -140 130 -53 18 -104 19 -155 0z"/>
<path d="M5690 5197 c-45 -13 -91 -36 -228 -117 -143 -83 -287 -116 -484 -108
-114 4 -133 8 -258 51 -150 52 -210 58 -275 28 -153 -71 -169 -293 -36 -493
175 -260 456 -401 771 -385 134 7 204 24 318 78 197 91 337 233 417 418 56
132 78 277 55 361 -16 59 -66 127 -107 149 -52 26 -119 33 -173 18z m-130
-497 c34 -15 70 -70 70 -106 0 -42 -31 -87 -92 -133 -201 -152 -500 -175 -726
-56 -126 66 -159 114 -125 182 28 59 89 88 183 88 100 0 184 -39 271 -124 34
-34 69 -61 78 -61 25 0 61 29 72 58 10 27 -5 82 -22 82 -5 0 -9 4 -9 8 0 9
121 68 155 76 31 7 117 -1 145 -14z"/>
<path d="M5430 4699 c-46 -5 -113 -30 -137 -50 -10 -9 -10 -15 2 -32 19 -27
19 -50 1 -86 -14 -27 -53 -51 -81 -51 -8 0 -49 31 -90 69 -124 113 -252 145
-360 91 -89 -45 -103 -120 -31 -174 157 -120 412 -158 608 -92 172 58 293 164
274 240 -17 68 -84 99 -186 85z"/>
</g>
</svg>
