<?xml version="1.0" standalone="no"?>
<!DOCTYPE svg PUBLIC "-//W3C//DTD SVG 20010904//EN"
 "http://www.w3.org/TR/2001/REC-SVG-20010904/DTD/svg10.dtd">
<svg version="1.0" xmlns="http://www.w3.org/2000/svg"
 width="1024.000000pt" height="1024.000000pt" viewBox="0 0 1024.000000 1024.000000"
 preserveAspectRatio="xMidYMid meet">

<g transform="translate(0.000000,1024.000000) scale(0.100000,-0.100000)"
fill="#000000" stroke="none">
<path d="M5045 8973 c-68 -10 -152 -36 -204 -63 -200 -101 -373 -315 -477
-587 -28 -75 -84 -294 -84 -330 0 -13 -1 -23 -3 -23 -2 0 -54 51 -117 113
-235 229 -502 361 -761 374 -272 14 -453 -84 -565 -307 -141 -281 -87 -777
122 -1122 20 -32 35 -61 33 -62 -2 -2 -44 5 -93 15 -310 63 -655 11 -878 -133
-269 -173 -350 -466 -213 -765 100 -217 304 -423 564 -569 l102 -57 -90 -47
c-303 -160 -527 -408 -611 -675 -27 -87 -37 -247 -21 -328 49 -231 260 -413
573 -495 93 -24 120 -26 283 -26 167 0 267 11 336 39 11 4 4 -18 -23 -72 -83
-170 -128 -354 -135 -560 -13 -350 85 -571 304 -682 200 -101 548 -45 834 135
117 73 281 219 347 309 l21 30 1 -29 c0 -52 51 -259 85 -347 94 -244 224 -420
390 -528 l80 -53 -4 -286 c-1 -158 -4 -288 -5 -290 -2 -1 -15 35 -30 80 -34
101 -92 219 -154 313 -66 102 -239 270 -341 333 -321 197 -726 233 -1186 107
-200 -55 -212 -74 -165 -261 79 -317 202 -546 399 -742 157 -157 313 -253 521
-321 219 -71 394 -87 578 -52 94 18 256 65 334 96 15 6 17 -2 20 -72 l3 -78
95 0 95 0 6 360 c4 198 7 450 8 560 l1 200 95 0 95 0 -1 -220 c-1 -121 -4
-375 -8 -563 l-6 -344 83 4 c97 4 102 7 102 94 l0 61 89 -33 c158 -60 258 -78
426 -78 404 -1 744 156 997 461 154 185 253 389 323 665 33 129 33 162 -3 198
-75 75 -492 151 -748 136 -483 -27 -830 -246 -1016 -642 -23 -49 -48 -107 -55
-129 -12 -37 -13 -31 -8 75 3 63 5 174 5 246 l0 131 69 51 c165 124 286 305
371 561 22 64 47 159 56 213 l17 96 100 -104 c55 -58 139 -134 186 -170 273
-205 625 -298 840 -221 184 66 292 192 347 402 24 89 27 392 5 500 -20 101
-73 260 -116 345 l-37 73 39 -7 c21 -3 74 -13 118 -21 104 -19 316 -19 431 0
165 27 316 90 436 181 218 168 274 421 158 710 -98 246 -339 499 -598 629 -30
14 -52 28 -50 30 1 2 39 22 83 46 433 228 713 671 630 994 -26 100 -64 164
-150 251 -115 116 -259 191 -454 235 -122 28 -364 36 -496 16 -55 -9 -101 -14
-103 -12 -2 2 8 21 21 42 156 247 243 589 218 854 -37 382 -261 585 -625 566
-291 -15 -610 -174 -842 -419 l-70 -74 -13 84 c-19 120 -63 283 -104 379 -128
302 -322 506 -549 578 -73 23 -205 37 -263 28z m200 -200 c216 -66 421 -322
506 -629 64 -232 66 -469 7 -714 -11 -47 -23 -88 -27 -93 -4 -4 -54 4 -111 18
-305 73 -701 71 -1024 -5 -49 -12 -92 -18 -96 -13 -11 11 -38 142 -50 243 -46
384 69 792 289 1023 163 172 323 226 506 170z m-1725 -514 c204 -52 380 -159
546 -331 150 -157 187 -228 214 -415 5 -38 20 -105 33 -151 l24 -83 -111 -55
c-245 -123 -394 -229 -575 -410 -67 -68 -126 -124 -129 -124 -16 0 -197 148
-250 204 -110 118 -223 311 -276 471 -98 297 -82 620 38 778 38 51 112 102
175 121 71 22 213 20 311 -5z m3577 -61 c101 -37 179 -131 220 -263 24 -80 24
-302 -1 -427 -66 -339 -255 -633 -528 -819 -31 -21 -59 -39 -61 -39 -1 0 -39
41 -82 92 -154 177 -381 350 -614 467 -64 32 -122 60 -130 62 -11 4 -8 21 13
84 14 44 35 118 47 164 54 207 294 458 574 598 205 103 419 134 562 81z
m-1684 -984 c144 -20 268 -53 407 -109 305 -122 542 -294 740 -537 265 -324
400 -709 400 -1143 1 -668 -319 -1218 -902 -1549 -419 -239 -931 -307 -1408
-186 -371 93 -671 266 -923 529 -306 320 -467 720 -469 1166 -2 321 55 573
192 850 179 359 444 623 805 800 72 35 177 80 234 100 269 93 613 122 924 79z
m-2578 -399 c124 -19 227 -47 308 -83 63 -29 267 -176 267 -192 0 -5 -23 -48
-50 -94 -60 -101 -147 -299 -183 -411 -33 -106 -65 -257 -80 -380 l-12 -100
-170 0 c-196 1 -262 15 -422 90 -338 159 -600 497 -581 751 6 82 40 147 117
224 169 168 481 244 806 195z m4951 -50 c245 -43 427 -153 500 -301 79 -161
-1 -401 -204 -616 -118 -123 -200 -186 -327 -248 -147 -72 -254 -101 -406
-107 -69 -3 -146 -3 -171 1 l-45 7 -6 92 c-17 253 -121 596 -251 828 -25 45
-46 82 -46 84 0 2 45 39 99 83 64 51 121 88 158 102 87 33 221 69 288 79 101
15 315 12 411 -4z m-4774 -1391 l66 -7 7 -81 c27 -323 123 -640 262 -859 14
-22 21 -43 16 -47 -115 -108 -219 -188 -288 -221 -182 -86 -396 -123 -578
-100 -263 33 -480 156 -553 315 -86 188 2 444 231 671 211 210 464 330 705
334 36 0 95 -2 132 -5z m4532 -79 c274 -73 548 -299 678 -560 78 -155 94 -302
45 -409 -103 -223 -484 -361 -838 -301 -121 20 -259 63 -338 105 -58 31 -261
195 -261 210 0 5 21 44 47 87 128 211 228 525 249 786 6 78 9 88 28 92 80 18
307 12 390 -10z m-3996 -1142 c188 -214 423 -384 702 -507 36 -15 69 -32 74
-36 9 -9 -27 -181 -54 -252 -62 -165 -311 -404 -545 -523 -147 -74 -243 -99
-375 -100 -95 0 -111 3 -167 29 -120 55 -192 168 -218 344 -18 115 -19 174 -4
279 32 244 130 465 283 645 65 76 213 211 226 206 3 -2 39 -40 78 -85z m3247
-14 c222 -174 376 -452 421 -759 36 -246 -9 -465 -118 -577 -222 -227 -800
-11 -1100 412 -71 99 -83 128 -117 260 l-29 117 46 20 c310 133 518 272 722
485 52 54 100 97 105 94 6 -2 37 -26 70 -52z m-2212 -609 c230 -65 568 -89
782 -56 120 19 281 54 306 67 13 6 18 -4 32 -64 67 -283 31 -569 -105 -842
-84 -168 -186 -278 -320 -345 -73 -36 -87 -40 -158 -40 -208 0 -397 145 -529
407 -101 201 -151 460 -131 674 9 90 36 219 46 219 3 0 37 -9 77 -20z m-717
-1266 c347 -61 614 -281 750 -619 34 -85 77 -225 68 -225 -3 0 -28 18 -57 39
-68 51 -308 205 -422 270 -193 111 -651 321 -701 321 -40 0 -64 -26 -64 -70 0
-51 20 -66 195 -145 352 -160 624 -311 835 -465 63 -46 130 -94 149 -107 l33
-23 -28 -11 c-111 -42 -179 -53 -354 -53 -158 0 -184 3 -275 27 -318 86 -586
310 -743 623 -45 90 -110 274 -119 339 l-5 43 108 25 c233 55 437 65 630 31z
m2899 5 c63 -8 275 -57 283 -64 8 -7 -51 -205 -89 -298 -73 -182 -154 -301
-296 -438 -278 -268 -693 -366 -1073 -253 l-55 16 30 25 c142 117 533 343 594
343 16 0 76 -11 133 -25 57 -14 120 -25 141 -25 48 0 77 28 77 75 0 29 -6 39
-32 55 -17 10 -53 24 -80 31 l-49 11 88 50 c48 27 139 77 201 110 62 33 117
68 122 78 16 31 11 72 -12 97 -40 42 -50 38 -338 -123 l-75 -42 -5 70 c-4 58
-9 73 -29 89 -29 24 -72 24 -100 2 -16 -14 -26 -44 -41 -122 -11 -57 -22 -112
-25 -122 -3 -10 -50 -41 -103 -70 -123 -66 -253 -144 -415 -248 l-129 -82 7
33 c15 67 66 213 104 293 154 330 437 515 831 545 112 8 222 5 335 -11z"/>
<path d="M4258 6474 c-156 -37 -256 -139 -186 -188 30 -21 56 -20 114 6 107
47 217 60 310 37 37 -10 48 -9 69 5 30 20 34 73 7 106 -36 45 -199 62 -314 34z"/>
<path d="M5940 6139 c-185 -30 -391 -216 -461 -415 -24 -68 -20 -116 12 -150
32 -34 68 -30 173 18 88 41 95 43 191 43 116 0 143 -11 241 -94 65 -56 101
-64 134 -31 58 58 -18 189 -147 251 -100 48 -242 63 -336 35 -26 -8 -47 -11
-47 -7 0 4 31 38 69 75 94 90 155 117 284 124 85 4 100 8 112 26 16 22 19 54
9 81 -15 39 -131 61 -234 44z"/>
<path d="M4237 5989 c-196 -46 -301 -242 -238 -447 16 -54 32 -81 68 -120 72
-76 125 -97 248 -97 119 0 171 21 246 95 86 86 118 241 75 367 -20 61 -92 145
-145 172 -72 37 -175 49 -254 30z m165 -186 c36 -18 48 -42 48 -98 0 -84 -54
-139 -136 -137 -120 1 -168 142 -76 225 40 36 104 41 164 10z"/>
<path d="M5770 5173 c-214 -109 -383 -153 -654 -174 -233 -17 -477 15 -676 87
-52 19 -101 37 -108 40 -28 9 -80 -23 -91 -58 -20 -60 31 -212 111 -335 113
-173 289 -297 497 -349 43 -11 76 -25 79 -34 3 -8 27 -50 54 -92 115 -181 285
-277 488 -278 234 0 415 136 464 351 12 51 14 130 12 379 l-2 315 38 43 c34
37 39 48 36 84 -2 30 -10 46 -28 59 -53 39 -75 35 -220 -38z m-33 -342 c27
-17 33 -30 48 -93 9 -40 19 -121 22 -180 12 -222 -45 -347 -186 -412 -38 -17
-66 -21 -156 -21 -98 0 -116 3 -165 26 -31 14 -73 41 -94 59 -116 102 -246
378 -222 473 10 42 57 60 166 65 84 3 100 1 140 -20 62 -32 102 -90 135 -194
31 -99 56 -134 94 -134 82 1 84 89 7 289 -20 51 -36 97 -36 101 0 16 132 57
190 59 14 0 39 -8 57 -18z"/>
<path d="M5031 1624 c0 -11 3 -14 6 -6 3 7 2 16 -1 19 -3 4 -6 -2 -5 -13z"/>
</g>
</svg>
