<?xml version="1.0" standalone="no"?>
<!DOCTYPE svg PUBLIC "-//W3C//DTD SVG 20010904//EN"
 "http://www.w3.org/TR/2001/REC-SVG-20010904/DTD/svg10.dtd">
<svg version="1.0" xmlns="http://www.w3.org/2000/svg"
 width="1024.000000pt" height="1024.000000pt" viewBox="0 0 1024.000000 1024.000000"
 preserveAspectRatio="xMidYMid meet">

<g transform="translate(0.000000,1024.000000) scale(0.100000,-0.100000)"
fill="#000000" stroke="none">
<path d="M4933 9464 c8 -8 295 -9 290 -1 -2 4 -70 7 -150 6 -79 0 -142 -3
-140 -5z"/>
<path d="M4785 9454 c-16 -2 -81 -9 -143 -15 -62 -6 -111 -13 -109 -16 4 -4
324 23 372 31 26 4 -81 4 -120 0z"/>
<path d="M5273 9453 c20 -2 54 -2 75 0 20 2 3 4 -38 4 -41 0 -58 -2 -37 -4z"/>
<path d="M5413 9443 c15 -2 39 -2 55 0 15 2 2 4 -28 4 -30 0 -43 -2 -27 -4z"/>
<path d="M5500 9438 c0 -4 21 -8 48 -7 52 1 48 6 -10 11 -21 2 -38 0 -38 -4z"/>
<path d="M5600 9429 c0 -4 18 -9 40 -11 22 -2 40 -1 40 3 0 4 -18 9 -40 11
-22 2 -40 1 -40 -3z"/>
<path d="M4410 9405 c-36 -7 -54 -13 -40 -13 14 -1 54 5 90 12 36 8 54 14 40
14 -14 0 -54 -6 -90 -13z"/>
<path d="M5703 9413 c9 -2 25 -2 35 0 9 3 1 5 -18 5 -19 0 -27 -2 -17 -5z"/>
<path d="M5830 9394 c41 -8 80 -12 85 -10 12 4 -114 26 -141 25 -10 -1 15 -7
56 -15z"/>
<path d="M4265 9380 c-16 -4 -65 -16 -108 -25 -43 -9 -77 -19 -74 -21 4 -4
239 45 246 52 7 6 -32 3 -64 -6z"/>
<path d="M5975 9366 c28 -8 59 -14 70 -14 37 -1 -17 16 -71 22 l-49 5 50 -13z"/>
<path d="M6155 9324 c50 -13 94 -22 100 -21 11 4 -158 47 -177 46 -7 0 28 -12
77 -25z"/>
<path d="M3930 9295 c-108 -31 -192 -61 -145 -51 22 4 264 74 280 80 6 3 3 5
-5 5 -8 0 -67 -15 -130 -34z"/>
<path d="M6425 9246 c88 -30 169 -57 180 -61 16 -6 17 -5 5 4 -18 13 -313 111
-332 110 -7 0 59 -24 147 -53z"/>
<path d="M4883 9253 c26 -2 68 -2 95 0 26 2 4 3 -48 3 -52 0 -74 -1 -47 -3z"/>
<path d="M5053 9253 c9 -2 25 -2 35 0 9 3 1 5 -18 5 -19 0 -27 -2 -17 -5z"/>
<path d="M5138 9253 c12 -2 30 -2 40 0 9 3 -1 5 -23 4 -22 0 -30 -2 -17 -4z"/>
<path d="M5308 9253 c17 -2 47 -2 65 0 17 2 3 4 -33 4 -36 0 -50 -2 -32 -4z"/>
<path d="M4713 9243 c15 -2 37 -2 50 0 12 2 0 4 -28 4 -27 0 -38 -2 -22 -4z"/>
<path d="M5453 9243 c9 -2 25 -2 35 0 9 3 1 5 -18 5 -19 0 -27 -2 -17 -5z"/>
<path d="M5526 9239 c6 -10 74 -16 80 -8 2 4 -16 9 -40 10 -24 2 -42 1 -40 -2z"/>
<path d="M4530 9227 c-41 -6 -68 -12 -60 -14 8 -2 60 3 115 11 55 7 82 14 60
13 -22 0 -74 -4 -115 -10z"/>
<path d="M5628 9223 c6 -2 18 -2 25 0 6 3 1 5 -13 5 -14 0 -19 -2 -12 -5z"/>
<path d="M5693 9213 c9 -2 23 -2 30 0 6 3 -1 5 -18 5 -16 0 -22 -2 -12 -5z"/>
<path d="M3640 9200 c-8 -5 -10 -10 -5 -10 6 0 17 5 25 10 8 5 11 10 5 10 -5
0 -17 -5 -25 -10z"/>
<path d="M4418 9203 c6 -2 18 -2 25 0 6 3 1 5 -13 5 -14 0 -19 -2 -12 -5z"/>
<path d="M5785 9200 c27 -12 43 -12 25 0 -8 5 -22 9 -30 9 -10 0 -8 -3 5 -9z"/>
<path d="M4368 9193 c7 -3 16 -2 19 1 4 3 -2 6 -13 5 -11 0 -14 -3 -6 -6z"/>
<path d="M3575 9175 c-25 -12 -26 -14 -5 -9 28 7 60 23 45 23 -5 0 -23 -6 -40
-14z"/>
<path d="M4275 9180 c-14 -7 -8 -8 20 -3 22 3 42 7 44 9 9 8 -45 2 -64 -6z"/>
<path d="M5858 9183 c7 -3 16 -2 19 1 4 3 -2 6 -13 5 -11 0 -14 -3 -6 -6z"/>
<path d="M5925 9170 c17 -4 39 -8 50 -8 16 0 15 2 -5 8 -14 4 -36 8 -50 8 -22
0 -22 -1 5 -8z"/>
<path d="M6640 9172 c8 -5 26 -13 40 -16 17 -5 20 -4 10 2 -8 5 -26 13 -40 16
-17 5 -20 4 -10 -2z"/>
<path d="M4185 9160 l-20 -9 20 1 c11 0 31 4 45 8 l25 8 -25 0 c-14 0 -34 -3
-45 -8z"/>
<path d="M3485 9139 c-22 -10 -29 -16 -15 -13 28 7 80 33 65 33 -5 0 -28 -9
-50 -20z"/>
<path d="M6008 9153 c7 -3 16 -2 19 1 4 3 -2 6 -13 5 -11 0 -14 -3 -6 -6z"/>
<path d="M4090 9135 c-47 -18 -27 -18 30 -1 25 8 36 15 25 15 -11 0 -36 -7
-55 -14z"/>
<path d="M6048 9143 c7 -3 16 -2 19 1 4 3 -2 6 -13 5 -11 0 -14 -3 -6 -6z"/>
<path d="M6730 9135 c14 -8 30 -14 35 -14 6 0 -1 6 -15 14 -14 8 -29 14 -35
14 -5 0 1 -6 15 -14z"/>
<path d="M6090 9134 c45 -17 74 -24 64 -14 -5 5 -25 12 -44 15 -19 3 -28 3
-20 -1z"/>
<path d="M3420 9110 c-9 -6 -10 -10 -3 -10 6 0 15 5 18 10 8 12 4 12 -15 0z"/>
<path d="M6820 9095 c25 -13 50 -24 55 -24 6 0 -10 11 -35 24 -25 13 -49 24
-55 24 -5 0 10 -11 35 -24z"/>
<path d="M3870 9071 c-141 -46 -282 -100 -295 -113 -5 -5 15 1 45 13 30 12
132 48 225 80 94 32 163 58 155 58 -8 0 -67 -17 -130 -38z"/>
<path d="M6205 9100 c27 -12 43 -12 25 0 -8 5 -22 9 -30 9 -10 0 -8 -3 5 -9z"/>
<path d="M3360 9085 c-14 -8 -20 -14 -15 -14 6 0 21 6 35 14 14 8 21 14 15 14
-5 0 -21 -6 -35 -14z"/>
<path d="M6270 9080 c34 -11 60 -11 35 0 -11 5 -29 8 -40 8 -16 0 -15 -2 5 -8z"/>
<path d="M3265 9044 c-184 -95 -517 -293 -532 -318 -4 -6 4 -4 18 6 154 100
210 135 309 190 63 35 150 81 193 102 71 35 89 47 70 46 -5 -1 -30 -12 -58
-26z"/>
<path d="M6355 9056 c17 -7 41 -16 55 -20 20 -5 19 -3 -5 8 -16 7 -41 16 -55
20 -20 5 -19 3 5 -8z"/>
<path d="M7015 9002 c61 -32 140 -75 178 -96 37 -21 67 -36 67 -33 0 11 -327
187 -347 187 -5 0 42 -26 102 -58z"/>
<path d="M6455 9020 c27 -12 43 -12 25 0 -8 5 -22 9 -30 9 -10 0 -8 -3 5 -9z"/>
<path d="M6501 9006 c3 -4 37 -18 124 -51 14 -5 17 -5 10 2 -5 6 -36 20 -68
32 -56 21 -75 25 -66 17z"/>
<path d="M3505 8931 c-22 -11 -35 -19 -30 -19 14 -1 93 36 80 37 -5 0 -28 -8
-50 -18z"/>
<path d="M6739 8909 c35 -16 66 -28 68 -26 4 5 -111 57 -123 57 -5 -1 20 -14
55 -31z"/>
<path d="M3418 8894 c-39 -21 -35 -28 5 -8 37 19 44 24 31 24 -5 -1 -21 -8
-36 -16z"/>
<path d="M6837 8865 c24 -17 73 -37 73 -30 0 5 -80 45 -89 45 -3 0 4 -7 16
-15z"/>
<path d="M7270 8866 c0 -2 35 -25 78 -50 42 -25 65 -36 50 -23 -30 24 -128 81
-128 73z"/>
<path d="M3320 8845 c-14 -8 -20 -14 -15 -14 6 0 21 6 35 14 14 8 21 14 15 14
-5 0 -21 -6 -35 -14z"/>
<path d="M3265 8820 c-3 -6 1 -7 9 -4 18 7 21 14 7 14 -6 0 -13 -4 -16 -10z"/>
<path d="M6934 8815 c11 -8 23 -15 28 -15 4 0 42 -20 84 -45 42 -25 79 -44 81
-41 5 5 -132 83 -182 103 -27 12 -28 12 -11 -2z"/>
<path d="M3103 8731 c-121 -70 -243 -148 -243 -156 0 -3 17 6 38 19 20 14 102
63 182 110 80 48 140 86 135 86 -6 0 -56 -27 -112 -59z"/>
<path d="M7435 8763 c24 -23 165 -117 165 -110 0 3 -33 27 -72 54 -79 54 -110
72 -93 56z"/>
<path d="M2634 8662 c-43 -33 -88 -69 -99 -82 -11 -13 25 12 80 55 113 88 110
85 103 85 -2 0 -40 -26 -84 -58z"/>
<path d="M4215 8714 c-551 -36 -1051 -138 -1295 -265 -229 -119 -371 -359
-371 -624 1 -208 73 -361 226 -482 39 -31 69 -59 68 -63 -4 -15 -62 -559 -73
-680 -6 -69 -13 -149 -16 -177 l-5 -53 -73 0 c-96 0 -245 -38 -338 -86 -96
-50 -213 -165 -256 -252 -105 -213 -39 -439 156 -530 50 -24 70 -27 157 -27
88 0 107 3 157 27 32 15 77 40 101 57 l45 30 5 -332 c7 -436 46 -809 132
-1267 162 -857 498 -1811 816 -2319 77 -121 183 -254 251 -312 166 -143 363
-177 503 -87 160 103 340 285 794 803 147 168 201 223 228 232 62 22 119 78
157 155 20 39 36 77 36 84 0 8 33 51 73 96 188 214 429 514 689 859 698 927
1241 1794 1645 2627 52 105 98 192 103 192 5 0 37 26 71 57 236 219 330 594
222 883 -35 94 -91 175 -190 273 -190 187 -442 359 -785 537 -655 338 -1428
553 -2253 625 -170 15 -837 28 -980 19z m960 -208 c1035 -103 1900 -387 2604
-854 l143 -96 -44 -11 c-93 -23 -217 -116 -297 -222 -29 -38 -74 -113 -101
-168 -64 -131 -90 -239 -91 -377 l-1 -107 -116 78 c-482 321 -1101 569 -1732
695 -411 82 -699 110 -1145 110 -425 -1 -690 -23 -1091 -94 -272 -48 -340 -39
-443 56 -143 132 -170 344 -69 547 54 106 136 189 238 239 212 105 672 190
1195 222 144 9 808 -4 950 -18z m2921 -1125 c87 -40 166 -170 185 -306 32
-232 -107 -524 -301 -630 -49 -27 -64 -30 -140 -30 -99 0 -148 20 -199 82 -44
53 -62 114 -68 228 -7 127 13 227 66 338 69 148 188 271 306 317 63 24 99 24
151 1z m-3116 -39 c102 -12 241 -30 310 -42 107 -18 411 -81 461 -96 13 -3 17
-24 22 -92 15 -224 131 -455 295 -586 84 -67 138 -97 229 -130 257 -91 574
-30 801 154 l63 51 32 -23 c39 -27 228 -168 241 -179 7 -6 -387 -816 -423
-868 -7 -12 -16 -9 -48 16 -129 101 -342 173 -509 173 -102 0 -164 -37 -164
-99 0 -14 22 -62 49 -106 66 -107 86 -171 111 -359 22 -172 45 -254 91 -329
l30 -48 -92 -147 c-203 -325 -471 -708 -767 -1094 -182 -238 -214 -285 -246
-364 -42 -102 -52 -209 -37 -388 9 -117 9 -165 1 -198 -33 -125 -166 -144
-221 -32 -22 46 -24 59 -21 198 3 170 -10 236 -57 288 -22 25 -37 32 -64 32
-72 0 -94 -54 -61 -145 19 -52 13 -173 -11 -218 -14 -28 -149 -199 -382 -484
-179 -218 -188 -240 -209 -486 -16 -185 -28 -232 -76 -283 -54 -57 -156 -57
-260 -1 -116 63 -269 272 -409 558 -76 156 -259 595 -259 622 0 5 22 24 49 41
109 71 224 216 273 344 86 227 54 516 -82 731 -52 83 -187 213 -276 265 -91
54 -211 93 -305 99 l-76 6 -17 111 c-40 265 -70 591 -87 951 -11 233 -5 571
12 635 12 48 114 158 198 213 71 47 81 60 81 105 0 56 -69 121 -181 172 -30
13 -56 25 -57 26 -5 3 12 201 49 567 16 164 29 307 29 318 0 15 7 19 38 19 21
0 87 9 148 20 235 44 522 82 744 100 193 15 833 4 1040 -18z m995 -202 c18 -8
17 -9 -7 -9 -16 -1 -28 4 -28 9 0 12 8 12 35 0z m137 -41 c55 -17 98 -32 96
-34 -2 -3 -51 11 -108 29 -58 19 -101 34 -96 35 5 1 54 -13 108 -30z m-155
-26 c-3 -10 -5 -2 -5 17 0 19 2 27 5 18 2 -10 2 -26 0 -35z m417 -69 c93 -38
190 -85 146 -70 -20 6 -260 105 -285 117 -50 23 37 -6 139 -47z m-312 -194
c70 -108 181 -194 308 -237 36 -12 57 -23 48 -23 -34 0 -131 43 -202 91 -108
72 -177 163 -227 301 -16 43 -29 86 -29 96 0 9 15 -26 33 -78 18 -52 49 -120
69 -150z m608 60 c66 -33 120 -62 120 -65 0 -5 -239 112 -249 121 -14 13 24
-3 129 -56z m243 -132 l68 -40 -53 -40 c-58 -44 -140 -88 -160 -87 -7 0 11 11
41 25 62 28 152 94 145 105 -2 4 -38 26 -79 49 -41 23 -75 43 -75 46 0 6 25
-7 113 -58z m-198 -183 c-22 -8 -53 -13 -70 -13 -21 0 -13 4 25 13 72 16 95
16 45 0z m-227 -12 c-10 -2 -26 -2 -35 0 -10 3 -2 5 17 5 19 0 27 -2 18 -5z
m100 -10 c-16 -2 -40 -2 -55 0 -16 2 -3 4 27 4 30 0 43 -2 28 -4z m1052 -274
c35 -14 88 -23 148 -27 l92 -5 -134 -261 c-138 -269 -238 -450 -411 -737
l-100 -167 -7 45 c-10 70 -38 150 -72 206 l-31 52 70 131 c50 94 390 777 390
783 0 1 25 -9 55 -20z m-4772 -94 c28 -9 52 -18 52 -20 0 -2 -30 -35 -68 -72
-37 -37 -104 -120 -149 -183 -121 -172 -190 -228 -293 -238 -65 -6 -112 12
-154 58 -38 42 -51 89 -43 149 17 133 178 274 358 316 78 18 222 13 297 -10z
m3798 -665 c311 -119 487 -438 333 -605 -81 -88 -205 -85 -286 8 -45 52 -68
125 -88 282 -16 132 -49 265 -82 328 l-15 29 34 -7 c18 -4 65 -19 104 -35z
m213 -991 c-360 -543 -830 -1168 -1194 -1589 l-90 -104 -3 78 c-6 157 21 223
172 421 226 298 345 457 480 645 151 211 407 588 446 658 20 35 28 42 45 37
47 -15 161 -16 200 -3 22 8 41 13 43 12 2 -1 -43 -71 -99 -155z m-3809 -573
c0 -2 -9 -6 -20 -9 -11 -3 -20 -1 -20 4 0 5 9 9 20 9 11 0 20 -2 20 -4z m65
-16 c25 -11 -1 -11 -35 0 -20 6 -21 8 -5 8 11 0 29 -3 40 -8z m-88 -42 c-3 -7
-5 -2 -5 12 0 14 2 19 5 13 2 -7 2 -19 0 -25z m198 -1 c64 -32 144 -97 191
-155 46 -56 109 -177 119 -227 4 -16 -9 6 -27 50 -65 156 -169 269 -310 336
-35 16 -52 27 -38 23 14 -4 43 -16 65 -27z m-188 -49 c-3 -7 -5 -2 -5 12 0 14
2 19 5 13 2 -7 2 -19 0 -25z m21 -83 c0 -16 -2 -15 -8 5 -4 14 -8 34 -8 45 0
16 2 15 8 -5 4 -14 8 -34 8 -45z m78 -330 c-3 -11 -76 278 -75 297 0 7 18 -54
40 -137 21 -82 37 -154 35 -160z m422 -115 c1 -139 -5 -116 -10 40 -3 69 -1
112 3 95 4 -16 7 -77 7 -135z m-399 50 c0 -9 -4 -8 -9 5 -5 11 -9 27 -9 35 0
9 4 8 9 -5 5 -11 9 -27 9 -35z m29 -100 c0 -8 -6 1 -13 20 -7 19 -13 42 -13
50 0 8 6 -1 13 -20 7 -19 13 -42 13 -50z m21 -70 c0 -9 -4 -8 -9 5 -5 11 -9
27 -9 35 0 9 4 8 9 -5 5 -11 9 -27 9 -35z m321 -76 c-28 -89 -73 -156 -150
-228 l-64 -58 -13 43 c-17 58 -15 63 6 14 l17 -39 70 69 c73 74 112 141 135
234 7 29 15 48 17 42 2 -6 -6 -41 -18 -77z m-251 -149 c0 -5 -16 35 -35 90
-19 54 -34 104 -33 110 0 5 16 -35 35 -90 19 -54 34 -104 33 -110z m1773 -507
c9 -18 35 -55 58 -81 38 -43 41 -50 28 -65 -67 -79 -405 -458 -482 -539 l-96
-103 0 73 c0 95 22 177 65 241 19 28 111 146 206 261 94 116 176 218 183 228
15 24 20 22 38 -15z"/>
<path d="M3540 6684 c-35 -15 -60 -48 -60 -81 0 -70 17 -83 155 -118 195 -49
326 -148 405 -303 25 -52 22 -60 -12 -33 -14 11 -57 36 -95 55 -166 84 -383
94 -541 26 -101 -43 -132 -121 -73 -181 36 -35 43 -35 150 -4 203 60 368 20
541 -130 76 -66 124 -95 155 -95 9 0 33 8 52 17 49 23 72 78 73 167 1 264
-239 573 -510 657 -65 20 -212 34 -240 23z"/>
<path d="M5665 6350 c-251 -40 -500 -211 -600 -413 -58 -117 -58 -195 1 -233
38 -26 79 -22 169 14 115 45 196 62 311 62 135 0 207 -22 322 -100 104 -71
142 -77 185 -32 31 32 34 60 11 108 -38 79 -202 180 -339 209 -98 20 -263 18
-350 -5 -38 -10 -71 -17 -73 -15 -8 8 120 101 181 132 100 50 200 72 357 80
103 4 139 9 154 22 53 46 39 122 -30 152 -52 23 -207 33 -299 19z"/>
<path d="M3453 5686 c-148 -48 -242 -165 -279 -346 -30 -152 -6 -432 57 -638
77 -252 273 -515 510 -684 101 -73 276 -165 374 -197 338 -110 761 -78 1101
83 166 79 309 181 445 316 241 240 360 465 376 710 11 171 -34 297 -141 398
-91 84 -149 106 -286 105 -91 -1 -123 -6 -235 -38 -367 -106 -449 -120 -669
-112 -172 6 -285 25 -429 73 -118 39 -198 81 -359 190 -187 128 -230 147 -338
151 -53 2 -101 -2 -127 -11z m1677 -1093 c-228 -23 -345 -93 -462 -275 -74
-116 -115 -141 -159 -97 -28 28 -22 85 15 158 14 29 24 57 20 62 -3 5 2 9 10
9 12 0 7 -16 -19 -72 -38 -78 -44 -128 -19 -152 37 -37 70 -16 140 92 32 48
81 110 108 137 90 88 228 145 351 143 35 -1 40 -2 15 -5z m171 -26 c78 -27
156 -73 224 -132 l50 -44 -50 -51 c-53 -55 -192 -163 -247 -193 -32 -17 -32
-17 -8 0 161 117 280 219 280 242 0 13 -74 78 -128 112 -57 36 -138 67 -205
78 -43 7 -46 9 -17 10 19 0 65 -10 101 -22z m-782 -111 c-2 -2 -44 -5 -94 -8
-49 -3 -76 -2 -60 2 30 8 162 13 154 6z m-236 -36 c-104 -37 -177 -84 -273
-177 -81 -78 -93 -94 -84 -110 6 -10 57 -42 115 -71 57 -30 93 -51 79 -47 -35
10 -170 82 -199 105 l-23 20 52 57 c28 32 77 80 108 106 60 51 223 137 257
136 11 0 -4 -9 -32 -19z m957 -296 c0 -19 -322 -145 -368 -143 -9 0 19 11 63
24 86 26 195 69 260 103 46 24 45 24 45 16z m-1032 -129 c29 -9 92 -22 140
-29 48 -8 71 -14 52 -15 -43 -1 -211 33 -237 48 -25 14 -15 14 45 -4z m622
-25 c-14 -4 -36 -8 -50 -8 -22 0 -22 1 5 8 17 4 39 8 50 8 16 0 15 -2 -5 -8z
m-97 -17 c-13 -2 -33 -2 -45 0 -13 2 -3 4 22 4 25 0 35 -2 23 -4z m-125 -10
c-32 -2 -84 -2 -115 0 -32 2 -6 3 57 3 63 0 89 -1 58 -3z"/>
<path d="M7140 8706 c0 -3 9 -10 20 -16 11 -6 20 -8 20 -6 0 3 -9 10 -20 16
-11 6 -20 8 -20 6z"/>
<path d="M7190 8676 c0 -6 179 -116 188 -116 4 0 -24 21 -63 46 -79 50 -125
77 -125 70z"/>
<path d="M7610 8646 c0 -2 8 -10 18 -17 15 -13 16 -12 3 4 -13 16 -21 21 -21
13z"/>
<path d="M7650 8617 c0 -2 18 -18 40 -36 22 -17 40 -28 40 -24 0 8 -80 68 -80
60z"/>
<path d="M2795 8533 c-137 -99 -445 -361 -505 -429 l-25 -29 35 30 c19 17 64
57 100 91 104 97 229 201 373 308 67 51 85 67 75 66 -2 0 -25 -17 -53 -37z"/>
<path d="M2455 8519 c-215 -175 -501 -468 -684 -701 -29 -38 -51 -68 -48 -68
3 0 38 42 79 93 167 207 377 426 562 585 130 112 152 131 146 131 -3 0 -27
-18 -55 -40z"/>
<path d="M7410 8533 c13 -10 69 -51 125 -91 55 -41 111 -83 124 -95 13 -12 22
-17 20 -10 -5 14 -208 167 -259 195 -30 17 -32 17 -10 1z"/>
<path d="M7749 8537 c16 -20 71 -61 71 -54 0 3 -19 20 -42 38 -24 19 -37 26
-29 16z"/>
<path d="M7891 8413 c70 -61 316 -307 404 -403 38 -42 53 -55 34 -30 -45 61
-463 480 -479 480 -7 0 12 -21 41 -47z"/>
<path d="M7765 8260 c140 -127 364 -358 455 -470 108 -133 116 -142 102 -115
-18 35 -190 236 -280 329 -93 94 -294 282 -327 305 -11 8 12 -15 50 -49z"/>
<path d="M2112 7912 c-133 -150 -241 -288 -332 -422 -74 -110 -111 -170 -106
-170 2 0 42 57 88 128 126 190 280 382 432 540 33 34 56 62 50 62 -5 0 -65
-62 -132 -138z"/>
<path d="M8401 7880 c25 -30 76 -97 113 -147 37 -51 70 -93 73 -93 3 0 1 6 -4
13 -6 6 -49 64 -95 127 -47 63 -96 124 -109 135 -13 11 -3 -5 22 -35z"/>
<path d="M1655 7663 c-76 -104 -208 -313 -202 -320 3 -3 13 9 21 26 20 39 128
204 195 299 28 39 49 72 47 72 -3 0 -30 -35 -61 -77z"/>
<path d="M8366 7600 c34 -47 68 -81 48 -48 -23 37 -70 98 -76 98 -5 0 8 -22
28 -50z"/>
<path d="M8600 7611 c5 -11 15 -23 21 -27 6 -3 3 5 -6 20 -20 30 -30 35 -15 7z"/>
<path d="M8662 7518 c9 -13 30 -47 47 -75 33 -53 52 -73 30 -30 -19 35 -81
127 -87 127 -2 0 2 -10 10 -22z"/>
<path d="M8426 7520 c4 -8 18 -28 30 -45 51 -68 133 -212 230 -400 57 -110
104 -196 104 -192 0 19 -169 344 -241 462 -66 109 -149 226 -123 175z"/>
<path d="M8786 7313 c53 -95 74 -129 74 -120 0 10 -100 187 -106 187 -3 0 12
-30 32 -67z"/>
<path d="M1407 7268 c-48 -88 -111 -215 -100 -203 12 13 144 265 139 265 -2 0
-20 -28 -39 -62z"/>
<path d="M1626 7249 c-20 -34 -35 -63 -33 -66 4 -4 36 48 66 105 24 45 2 20
-33 -39z"/>
<path d="M8892 7115 c18 -35 34 -63 36 -61 4 5 -56 126 -63 126 -3 0 10 -29
27 -65z"/>
<path d="M1558 7128 c-49 -95 -128 -261 -125 -264 1 -2 37 66 80 151 42 85 75
155 72 155 -2 0 -15 -19 -27 -42z"/>
<path d="M8931 7035 c0 -5 13 -35 29 -65 16 -30 29 -50 29 -45 0 6 -13 35 -29
65 -16 30 -29 51 -29 45z"/>
<path d="M1246 6939 c-15 -34 -25 -63 -23 -65 2 -2 16 24 30 58 15 34 25 63
23 65 -2 2 -15 -24 -30 -58z"/>
<path d="M8995 6893 c42 -111 89 -223 92 -219 5 5 -87 236 -94 236 -3 0 -2 -8
2 -17z"/>
<path d="M1196 6820 c-22 -56 -19 -65 5 -11 11 24 18 46 15 48 -2 2 -11 -14
-20 -37z"/>
<path d="M1396 6784 c-15 -36 -25 -68 -23 -70 2 -2 16 26 30 63 15 37 25 68
23 70 -2 2 -16 -26 -30 -63z"/>
<path d="M8804 6840 c9 -32 39 -101 43 -97 2 3 -8 29 -22 58 -14 30 -23 47
-21 39z"/>
<path d="M1135 6660 c-20 -56 -35 -104 -32 -106 2 -2 20 42 40 98 20 56 35
103 33 105 -2 2 -20 -42 -41 -97z"/>
<path d="M1356 6685 c-9 -26 -7 -32 5 -12 6 10 9 21 6 23 -2 3 -7 -2 -11 -11z"/>
<path d="M8865 6685 c38 -109 48 -136 51 -132 5 5 -31 111 -46 134 -10 16 -11
16 -5 -2z"/>
<path d="M9101 6620 c0 -8 9 -35 19 -60 10 -25 19 -38 19 -30 0 8 -9 35 -19
60 -10 25 -19 38 -19 30z"/>
<path d="M1312 6563 c-15 -48 -8 -55 8 -8 7 20 10 38 8 41 -3 2 -10 -13 -16
-33z"/>
<path d="M1052 6403 c-36 -123 -78 -299 -86 -358 -10 -65 1 -29 35 120 17 77
45 184 61 239 16 54 27 100 25 102 -2 3 -18 -44 -35 -103z"/>
<path d="M1286 6493 c-6 -14 -5 -15 5 -6 7 7 10 15 7 18 -3 3 -9 -2 -12 -12z"/>
<path d="M9141 6505 c0 -5 10 -44 24 -85 14 -41 22 -60 19 -41 -7 38 -42 142
-43 126z"/>
<path d="M8941 6475 c1 -19 18 -51 18 -35 0 8 -4 22 -9 30 -5 8 -9 11 -9 5z"/>
<path d="M1273 6455 c-3 -9 -3 -18 -1 -21 3 -3 8 4 11 16 6 23 -1 27 -10 5z"/>
<path d="M1246 6364 c-4 -14 -5 -28 -3 -31 3 -2 8 8 11 23 4 14 5 28 3 31 -3
2 -8 -8 -11 -23z"/>
<path d="M8975 6370 c21 -93 94 -362 94 -348 1 21 -74 314 -89 348 l-11 25 6
-25z"/>
<path d="M9195 6320 c19 -90 27 -120 31 -120 7 0 -7 71 -23 110 -7 19 -11 24
-8 10z"/>
<path d="M1231 6304 c0 -11 3 -14 6 -6 3 7 2 16 -1 19 -3 4 -6 -2 -5 -13z"/>
<path d="M1196 6169 c-8 -42 0 -50 9 -9 4 17 5 34 2 36 -2 3 -7 -10 -11 -27z"/>
<path d="M9231 6174 c0 -11 3 -14 6 -6 3 7 2 16 -1 19 -3 4 -6 -2 -5 -13z"/>
<path d="M9242 6130 c0 -14 2 -19 5 -12 2 6 2 18 0 25 -3 6 -5 1 -5 -13z"/>
<path d="M1181 6104 c0 -11 3 -14 6 -6 3 7 2 16 -1 19 -3 4 -6 -2 -5 -13z"/>
<path d="M9252 6080 c0 -14 2 -19 5 -12 2 6 2 18 0 25 -3 6 -5 1 -5 -13z"/>
<path d="M1166 6048 c-3 -13 -5 -32 -5 -43 1 -11 5 -2 10 19 10 42 6 62 -5 24z"/>
<path d="M9262 6025 c0 -16 2 -22 5 -12 2 9 2 23 0 30 -3 6 -5 -1 -5 -18z"/>
<path d="M936 5880 c-10 -69 -16 -135 -13 -145 3 -13 5 -8 6 13 0 18 8 76 16
128 9 53 14 104 13 113 -2 9 -12 -40 -22 -109z"/>
<path d="M1145 5940 c-4 -23 -5 -44 -2 -46 3 -3 8 13 12 36 4 23 5 44 2 46 -3
3 -8 -13 -12 -36z"/>
<path d="M9071 5975 c0 -5 6 -37 14 -70 14 -58 14 -59 9 -11 -5 44 -22 106
-23 81z"/>
<path d="M9271 5964 c0 -11 3 -14 6 -6 3 7 2 16 -1 19 -3 4 -6 -2 -5 -13z"/>
<path d="M9282 5910 c0 -14 2 -19 5 -12 2 6 2 18 0 25 -3 6 -5 1 -5 -13z"/>
<path d="M1133 5840 c0 -25 2 -35 4 -22 2 12 2 32 0 45 -2 12 -4 2 -4 -23z"/>
<path d="M9292 5850 c0 -14 2 -19 5 -12 2 6 2 18 0 25 -3 6 -5 1 -5 -13z"/>
<path d="M9102 5795 c0 -16 2 -22 5 -12 2 9 2 23 0 30 -3 6 -5 -1 -5 -18z"/>
<path d="M9302 5780 c0 -14 2 -19 5 -12 2 6 2 18 0 25 -3 6 -5 1 -5 -13z"/>
<path d="M1116 5759 c-3 -17 -5 -50 -5 -73 1 -30 4 -23 10 29 8 74 6 97 -5 44z"/>
<path d="M9112 5740 c0 -14 3 -45 7 -70 6 -34 9 -37 9 -15 1 17 -3 48 -7 70
-6 25 -9 31 -9 15z"/>
<path d="M9313 5690 c0 -25 2 -35 4 -22 2 12 2 32 0 45 -2 12 -4 2 -4 -23z"/>
<path d="M905 5620 c-4 -45 -5 -83 -2 -86 3 -3 8 31 12 76 4 45 5 83 2 86 -3
3 -8 -31 -12 -76z"/>
<path d="M1103 5605 c0 -22 2 -30 4 -17 2 12 2 30 0 40 -3 9 -5 -1 -4 -23z"/>
<path d="M9323 5585 c0 -33 2 -45 4 -27 2 18 2 45 0 60 -2 15 -4 0 -4 -33z"/>
<path d="M9138 5271 c1 -173 4 -316 6 -318 7 -7 5 503 -2 567 -4 36 -6 -76 -4
-249z"/>
<path d="M1088 5461 c-2 -49 0 -102 3 -117 4 -16 7 24 8 89 0 64 -1 117 -3
117 -3 0 -6 -40 -8 -89z"/>
<path d="M902 5500 c0 -14 2 -19 5 -12 2 6 2 18 0 25 -3 6 -5 1 -5 -13z"/>
<path d="M9338 5300 c3 -113 6 -207 8 -209 7 -8 2 241 -6 329 -4 52 -5 5 -2
-120z"/>
<path d="M894 5245 c0 -121 2 -169 3 -107 2 62 2 161 0 220 -1 59 -3 8 -3
-113z"/>
<path d="M1080 5220 c0 -16 4 -30 8 -30 5 0 7 14 4 30 -2 17 -6 30 -8 30 -2 0
-4 -13 -4 -30z"/>
<path d="M1089 5128 c-2 -18 -1 -49 2 -68 5 -27 7 -19 8 33 1 71 -4 89 -10 35z"/>
<path d="M9333 4990 c0 -36 2 -50 4 -32 2 17 2 47 0 65 -2 17 -4 3 -4 -33z"/>
<path d="M1093 4975 c0 -27 2 -38 4 -22 2 15 2 37 0 50 -2 12 -4 0 -4 -28z"/>
<path d="M903 4915 c0 -33 2 -45 4 -27 2 18 2 45 0 60 -2 15 -4 0 -4 -33z"/>
<path d="M9133 4900 c0 -25 2 -35 4 -22 2 12 2 32 0 45 -2 12 -4 2 -4 -23z"/>
<path d="M1103 4860 c0 -25 2 -35 4 -22 2 12 2 32 0 45 -2 12 -4 2 -4 -23z"/>
<path d="M9323 4850 c0 -30 2 -43 4 -27 2 15 2 39 0 55 -2 15 -4 2 -4 -28z"/>
<path d="M916 4770 c5 -95 35 -312 42 -305 2 2 -3 55 -12 117 -9 62 -21 149
-26 193 l-9 80 5 -85z"/>
<path d="M9112 4730 c-7 -69 -19 -154 -27 -190 -8 -36 -14 -76 -14 -90 2 -39
36 144 49 261 7 58 10 114 8 125 -2 10 -9 -37 -16 -106z"/>
<path d="M1112 4770 c0 -25 5 -79 13 -120 13 -71 14 -71 8 -15 -3 33 -9 87
-13 120 -7 55 -7 56 -8 15z"/>
<path d="M9313 4735 c0 -22 2 -30 4 -17 2 12 2 30 0 40 -3 9 -5 -1 -4 -23z"/>
<path d="M9302 4660 c0 -19 2 -27 5 -17 2 9 2 25 0 35 -3 9 -5 1 -5 -18z"/>
<path d="M9292 4590 c0 -19 2 -27 5 -17 2 9 2 25 0 35 -3 9 -5 1 -5 -18z"/>
<path d="M1142 4545 c0 -16 2 -22 5 -12 2 9 2 23 0 30 -3 6 -5 -1 -5 -18z"/>
<path d="M9276 4498 c-3 -13 -5 -32 -5 -43 1 -11 5 -2 10 19 10 42 6 62 -5 24z"/>
<path d="M1152 4485 c0 -16 2 -22 5 -12 2 9 2 23 0 30 -3 6 -5 -1 -5 -18z"/>
<path d="M961 4434 c0 -11 3 -14 6 -6 3 7 2 16 -1 19 -3 4 -6 -2 -5 -13z"/>
<path d="M1161 4434 c0 -11 3 -14 6 -6 3 7 2 16 -1 19 -3 4 -6 -2 -5 -13z"/>
<path d="M9256 4389 c-4 -23 -5 -44 -2 -46 2 -2 7 14 11 37 4 23 5 43 2 46 -2
3 -7 -14 -11 -37z"/>
<path d="M9037 4303 c-15 -64 -25 -118 -23 -120 2 -3 16 48 31 112 15 64 25
118 23 120 -2 3 -16 -48 -31 -112z"/>
<path d="M1171 4384 c0 -11 3 -14 6 -6 3 7 2 16 -1 19 -3 4 -6 -2 -5 -13z"/>
<path d="M972 4375 c0 -11 3 -29 8 -40 11 -25 11 1 0 35 -6 20 -8 21 -8 5z"/>
<path d="M1181 4350 c-1 -13 16 -80 60 -248 6 -23 14 -41 16 -38 3 2 -7 46
-21 98 -14 51 -32 118 -40 148 -8 30 -15 48 -15 40z"/>
<path d="M9241 4314 c0 -11 3 -14 6 -6 3 7 2 16 -1 19 -3 4 -6 -2 -5 -13z"/>
<path d="M991 4274 c0 -11 3 -14 6 -6 3 7 2 16 -1 19 -3 4 -6 -2 -5 -13z"/>
<path d="M9232 4270 c0 -14 2 -19 5 -12 2 6 2 18 0 25 -3 6 -5 1 -5 -13z"/>
<path d="M1004 4227 c3 -12 10 -46 17 -75 6 -30 13 -51 15 -49 6 6 -26 147
-33 147 -3 0 -3 -10 1 -23z"/>
<path d="M9221 4224 c0 -11 3 -14 6 -6 3 7 2 16 -1 19 -3 4 -6 -2 -5 -13z"/>
<path d="M9201 4154 c-7 -25 -10 -48 -8 -51 3 -2 10 17 16 43 7 25 10 48 8 51
-3 2 -10 -17 -16 -43z"/>
<path d="M8992 4123 c-7 -25 -11 -47 -9 -50 2 -2 10 17 17 42 7 25 11 48 8 50
-2 2 -10 -16 -16 -42z"/>
<path d="M1046 4061 c7 -38 42 -142 43 -126 1 6 -10 44 -24 85 -13 41 -22 60
-19 41z"/>
<path d="M9181 4074 c0 -11 3 -14 6 -6 3 7 2 16 -1 19 -3 4 -6 -2 -5 -13z"/>
<path d="M8952 3988 c-12 -39 -20 -73 -18 -75 2 -2 14 28 25 68 12 39 20 73
18 75 -2 2 -14 -28 -25 -68z"/>
<path d="M1261 4040 c0 -8 6 -28 14 -45 17 -39 18 -21 0 25 -7 19 -14 28 -14
20z"/>
<path d="M9156 3994 c-10 -31 -15 -58 -13 -61 3 -2 13 21 22 52 21 74 14 82
-9 9z"/>
<path d="M1291 3950 c0 -8 4 -24 9 -35 5 -13 9 -14 9 -5 0 8 -4 24 -9 35 -5
13 -9 14 -9 5z"/>
<path d="M9107 3838 c-14 -45 -25 -84 -23 -86 2 -2 16 33 31 78 15 45 25 83
23 85 -2 3 -16 -32 -31 -77z"/>
<path d="M1096 3890 c3 -14 11 -32 16 -40 6 -10 7 -7 2 10 -3 14 -11 32 -16
40 -6 10 -7 7 -2 -10z"/>
<path d="M8906 3854 c-9 -26 -14 -49 -12 -51 2 -2 11 17 20 43 9 26 14 49 12
51 -2 2 -11 -17 -20 -43z"/>
<path d="M1125 3807 c7 -37 107 -289 112 -283 2 2 -20 66 -50 142 -70 178 -68
174 -62 141z"/>
<path d="M1346 3780 c4 -14 15 -43 25 -65 11 -22 16 -29 13 -15 -4 14 -15 43
-25 65 -11 22 -16 29 -13 15z"/>
<path d="M8851 3704 c-12 -31 -20 -59 -18 -61 2 -2 14 22 26 53 12 31 20 59
18 61 -2 2 -14 -22 -26 -53z"/>
<path d="M9056 3695 c-9 -26 -7 -32 5 -12 6 10 9 21 6 23 -2 3 -7 -2 -11 -11z"/>
<path d="M1391 3667 c-1 -12 109 -253 125 -274 7 -10 -11 36 -41 102 -80 173
-84 181 -84 172z"/>
<path d="M9035 3639 c-4 -6 -5 -12 -2 -15 2 -3 7 2 10 11 7 17 1 20 -8 4z"/>
<path d="M8806 3595 c-9 -26 -7 -32 5 -12 6 10 9 21 6 23 -2 3 -7 -2 -11 -11z"/>
<path d="M9018 3595 c-3 -11 -9 -29 -13 -40 -3 -11 1 -7 10 8 9 16 15 33 12
40 -2 6 -6 3 -9 -8z"/>
<path d="M8786 3543 c-6 -14 -5 -15 5 -6 7 7 10 15 7 18 -3 3 -9 -2 -12 -12z"/>
<path d="M8982 3505 c-17 -37 -14 -45 4 -12 9 16 14 31 11 33 -2 2 -9 -7 -15
-21z"/>
<path d="M8752 3475 c-30 -62 -27 -71 4 -12 14 27 24 51 22 53 -3 2 -14 -17
-26 -41z"/>
<path d="M1249 3489 c18 -48 133 -273 199 -389 70 -124 214 -344 233 -355 6
-4 -27 48 -74 116 -100 147 -195 312 -288 502 -65 134 -91 180 -70 126z"/>
<path d="M8873 3277 c-51 -100 -86 -174 -79 -164 28 36 183 347 173 347 -1 0
-44 -82 -94 -183z"/>
<path d="M8685 3340 c-19 -38 -33 -70 -30 -70 2 0 21 32 40 70 19 39 33 70 30
70 -2 0 -21 -31 -40 -70z"/>
<path d="M1530 3366 c0 -11 30 -66 36 -66 2 0 -3 15 -12 33 -19 36 -24 44 -24
33z"/>
<path d="M1570 3287 c0 -35 342 -548 382 -573 5 -3 -21 36 -59 87 -91 124
-197 283 -262 394 -56 94 -61 102 -61 92z"/>
<path d="M8612 3208 c-16 -29 -40 -70 -52 -90 -12 -21 -20 -38 -17 -38 8 0
109 172 104 177 -3 2 -18 -20 -35 -49z"/>
<path d="M8760 3070 c-6 -11 -8 -20 -6 -20 3 0 10 9 16 20 6 11 8 20 6 20 -3
0 -10 -9 -16 -20z"/>
<path d="M8466 2970 c-36 -55 -64 -100 -61 -100 2 0 31 39 63 88 68 101 75
112 69 112 -2 0 -34 -45 -71 -100z"/>
<path d="M8716 2995 c-9 -14 -23 -37 -32 -52 l-16 -28 20 24 c24 29 55 81 49
81 -3 0 -12 -11 -21 -25z"/>
<path d="M8626 2853 c-20 -32 -27 -46 -14 -31 26 30 62 88 55 88 -2 0 -21 -26
-41 -57z"/>
<path d="M8344 2798 c-66 -85 -84 -112 -40 -63 39 44 99 125 93 125 -2 0 -26
-28 -53 -62z"/>
<path d="M8511 2692 c-38 -54 -109 -144 -156 -201 -47 -57 -82 -100 -76 -97
34 21 325 396 308 396 -3 0 -37 -44 -76 -98z"/>
<path d="M1696 2718 c44 -72 248 -314 409 -486 120 -129 545 -486 545 -459 0
3 -51 43 -114 91 -252 190 -537 475 -748 747 -81 106 -114 144 -92 107z"/>
<path d="M1972 2683 c302 -357 567 -601 890 -820 153 -103 390 -243 413 -243
5 0 -42 29 -105 63 -409 225 -808 553 -1124 925 -43 50 -81 92 -84 92 -3 0 2
-8 10 -17z"/>
<path d="M8239 2663 c-13 -16 -36 -41 -49 -58 -24 -29 -25 -29 -1 -10 24 20
86 95 79 95 -2 0 -15 -12 -29 -27z"/>
<path d="M8005 2406 c-88 -90 -182 -182 -208 -205 -27 -24 -47 -44 -45 -47 6
-5 276 255 351 340 38 42 67 76 65 76 -1 0 -75 -74 -163 -164z"/>
<path d="M8164 2279 c-159 -164 -318 -303 -540 -477 -16 -12 -20 -18 -9 -13
54 25 310 245 470 403 99 98 177 178 174 178 -3 0 -46 -41 -95 -91z"/>
<path d="M7625 2059 c-60 -49 -171 -131 -245 -181 -127 -86 -191 -134 -125
-93 156 95 523 371 484 364 -2 0 -53 -41 -114 -90z"/>
<path d="M7569 1763 c-13 -16 -12 -17 4 -4 16 13 21 21 13 21 -2 0 -10 -8 -17
-17z"/>
<path d="M2665 1761 c18 -31 490 -319 502 -308 2 3 -45 31 -104 63 -59 33
-174 103 -256 157 -82 53 -146 93 -142 88z"/>
<path d="M7133 1719 c-29 -17 -53 -33 -53 -36 0 -5 89 44 105 58 16 16 1 9
-52 -22z"/>
<path d="M7427 1671 c-125 -83 -184 -129 -82 -65 125 78 224 148 203 143 -2 0
-56 -35 -121 -78z"/>
<path d="M7018 1654 c-27 -13 -48 -27 -48 -29 0 -3 23 6 50 20 28 14 50 28 50
30 0 7 1 7 -52 -21z"/>
<path d="M3290 1616 c0 -3 14 -12 30 -21 17 -9 30 -13 30 -11 0 3 -13 12 -30
21 -16 9 -30 13 -30 11z"/>
<path d="M6883 1583 c-40 -21 -70 -39 -69 -41 5 -4 146 67 146 73 0 7 1 8 -77
-32z"/>
<path d="M3390 1560 c46 -25 64 -25 22 0 -18 11 -38 20 -45 20 -6 -1 4 -9 23
-20z"/>
<path d="M7158 1507 c-58 -34 -105 -63 -103 -65 3 -3 172 89 210 115 51 34
-11 5 -107 -50z"/>
<path d="M3519 1504 c40 -19 76 -32 79 -30 3 3 -4 9 -14 12 -10 4 -43 18 -73
31 -81 35 -76 26 8 -13z"/>
<path d="M6693 1497 c-51 -23 -91 -43 -89 -45 5 -4 135 49 171 70 48 29 17 19
-82 -25z"/>
<path d="M3639 1455 c18 -8 36 -15 40 -15 13 1 -45 29 -59 29 -8 0 0 -6 19
-14z"/>
<path d="M3194 1436 c11 -9 24 -16 30 -16 12 0 7 5 -24 19 -24 11 -24 11 -6
-3z"/>
<path d="M6535 1430 c-22 -10 -36 -19 -32 -19 12 -1 77 27 77 33 0 7 3 8 -45
-14z"/>
<path d="M6960 1400 c-41 -21 -72 -39 -67 -40 10 0 147 69 147 75 0 7 3 8 -80
-35z"/>
<path d="M3240 1415 c0 -7 81 -47 86 -43 2 3 -17 14 -41 26 -25 12 -45 20 -45
17z"/>
<path d="M3770 1400 c8 -5 22 -10 30 -10 13 0 13 1 0 10 -8 5 -22 10 -30 10
-13 0 -13 -1 0 -10z"/>
<path d="M6440 1395 c-19 -7 -28 -14 -20 -14 8 0 29 6 45 14 39 17 21 18 -25
0z"/>
<path d="M3345 1363 c13 -12 207 -95 211 -90 2 2 -42 24 -98 48 -124 54 -126
54 -113 42z"/>
<path d="M6285 1344 c-22 -8 -69 -22 -105 -32 -36 -9 -58 -18 -50 -19 8 -2 62
12 120 31 58 19 98 34 90 34 -8 0 -33 -6 -55 -14z"/>
<path d="M6825 1340 c-22 -11 -62 -29 -88 -40 -27 -12 -47 -23 -45 -26 3 -2
47 16 99 40 52 25 90 45 84 44 -5 0 -28 -8 -50 -18z"/>
<path d="M6010 1270 c-20 -6 -21 -8 -5 -8 11 0 34 4 50 8 27 7 27 8 5 8 -14 0
-36 -4 -50 -8z"/>
<path d="M6625 1255 c-16 -8 -72 -28 -123 -46 -51 -17 -91 -33 -89 -35 4 -5
256 82 265 91 10 10 -23 3 -53 -10z"/>
<path d="M3605 1252 c13 -11 166 -65 171 -59 2 2 -38 18 -88 36 -51 17 -88 28
-83 23z"/>
<path d="M5948 1253 c6 -2 18 -2 25 0 6 3 1 5 -13 5 -14 0 -19 -2 -12 -5z"/>
<path d="M5898 1243 c6 -2 18 -2 25 0 6 3 1 5 -13 5 -14 0 -19 -2 -12 -5z"/>
<path d="M4418 1233 c6 -2 18 -2 25 0 6 3 1 5 -13 5 -14 0 -19 -2 -12 -5z"/>
<path d="M5843 1233 c9 -2 23 -2 30 0 6 3 -1 5 -18 5 -16 0 -22 -2 -12 -5z"/>
<path d="M4495 1220 c17 -4 44 -8 60 -8 25 0 24 2 -10 9 -51 10 -92 10 -50 -1z"/>
<path d="M5723 1213 c9 -2 23 -2 30 0 6 3 -1 5 -18 5 -16 0 -22 -2 -12 -5z"/>
<path d="M4187 1203 c18 -2 50 -2 70 0 21 2 7 4 -32 4 -38 0 -55 -2 -38 -4z"/>
<path d="M4645 1201 c19 -9 113 -15 104 -7 -2 2 -31 6 -64 10 -40 4 -53 3 -40
-3z"/>
<path d="M5678 1203 c7 -3 16 -2 19 1 4 3 -2 6 -13 5 -11 0 -14 -3 -6 -6z"/>
<path d="M5548 1193 c12 -2 32 -2 45 0 12 2 2 4 -23 4 -25 0 -35 -2 -22 -4z"/>
<path d="M3800 1182 c20 -13 231 -74 236 -69 3 3 -39 16 -236 74 -13 4 -13 3
0 -5z"/>
<path d="M4850 1180 c73 -13 545 -13 590 0 31 9 30 9 -18 4 -65 -6 -428 -6
-542 0 -78 5 -80 4 -30 -4z"/>
<path d="M6380 1170 c-9 -6 -10 -10 -3 -10 6 0 15 5 18 10 8 12 4 12 -15 0z"/>
<path d="M6285 1141 c-27 -10 -96 -28 -153 -41 -56 -13 -100 -25 -98 -28 6 -6
210 43 276 67 30 11 48 20 40 20 -8 0 -37 -8 -65 -18z"/>
<path d="M4051 1106 c7 -7 241 -57 251 -54 6 2 -45 16 -114 31 -123 27 -145
31 -137 23z"/>
<path d="M5960 1060 c-34 -7 -34 -7 -5 -8 17 0 39 3 50 8 24 10 4 10 -45 0z"/>
<path d="M4350 1040 c14 -4 36 -8 50 -8 l25 0 -25 8 c-14 4 -36 8 -50 8 l-25
0 25 -8z"/>
<path d="M5810 1035 c-36 -7 -54 -13 -40 -13 14 -1 54 5 90 12 36 8 54 14 40
14 -14 0 -54 -6 -90 -13z"/>
<path d="M4453 1023 c9 -2 25 -2 35 0 9 3 1 5 -18 5 -19 0 -27 -2 -17 -5z"/>
<path d="M4528 1013 c6 -2 18 -2 25 0 6 3 1 5 -13 5 -14 0 -19 -2 -12 -5z"/>
<path d="M5693 1013 c9 -2 25 -2 35 0 9 3 1 5 -18 5 -19 0 -27 -2 -17 -5z"/>
<path d="M4620 1000 c46 -9 147 -13 139 -6 -2 2 -44 6 -94 9 -65 4 -77 3 -45
-3z"/>
<path d="M5608 1003 c12 -2 32 -2 45 0 12 2 2 4 -23 4 -25 0 -35 -2 -22 -4z"/>
<path d="M5528 993 c12 -2 30 -2 40 0 9 3 -1 5 -23 4 -22 0 -30 -2 -17 -4z"/>
<path d="M4808 983 c12 -2 32 -2 45 0 12 2 2 4 -23 4 -25 0 -35 -2 -22 -4z"/>
<path d="M4893 983 c9 -2 23 -2 30 0 6 3 -1 5 -18 5 -16 0 -22 -2 -12 -5z"/>
<path d="M5160 980 l-215 -6 210 -1 c116 0 242 3 280 7 l70 7 -65 -1 c-36 0
-162 -3 -280 -6z"/>
</g>
</svg>
